<mxfile>
    <diagram id="D0JQNDNxnLL_0FjzkVd2" name="Page-1">
        <mxGraphModel dx="41" dy="32" grid="1" gridSize="10" guides="1" tooltips="1" connect="1" arrows="1" fold="1" page="1" pageScale="1" pageWidth="827" pageHeight="1169" math="0" shadow="0">
            <root>
                <mxCell id="0"/>
                <mxCell id="1" parent="0"/>
                <mxCell id="Y2FYfS4u4MYW43cecbyf-15" style="edgeStyle=orthogonalEdgeStyle;rounded=0;orthogonalLoop=1;jettySize=auto;html=1;entryX=0;entryY=0.5;entryDx=0;entryDy=0;" parent="1" source="Y2FYfS4u4MYW43cecbyf-12" target="Y2FYfS4u4MYW43cecbyf-14" edge="1">
                    <mxGeometry relative="1" as="geometry"/>
                </mxCell>
                <mxCell id="Y2FYfS4u4MYW43cecbyf-17" value="Port: 3306" style="edgeLabel;html=1;align=center;verticalAlign=middle;resizable=0;points=[];" parent="Y2FYfS4u4MYW43cecbyf-15" vertex="1" connectable="0">
                    <mxGeometry x="-0.125" y="1" relative="1" as="geometry">
                        <mxPoint as="offset"/>
                    </mxGeometry>
                </mxCell>
                <mxCell id="Y2FYfS4u4MYW43cecbyf-21" style="edgeStyle=orthogonalEdgeStyle;rounded=0;orthogonalLoop=1;jettySize=auto;html=1;entryX=0;entryY=0.5;entryDx=0;entryDy=0;" parent="1" source="Y2FYfS4u4MYW43cecbyf-12" target="Y2FYfS4u4MYW43cecbyf-19" edge="1">
                    <mxGeometry relative="1" as="geometry">
                        <Array as="points">
                            <mxPoint x="240" y="300"/>
                        </Array>
                    </mxGeometry>
                </mxCell>
                <mxCell id="Y2FYfS4u4MYW43cecbyf-23" value="Port: 3306" style="edgeLabel;html=1;align=center;verticalAlign=middle;resizable=0;points=[];" parent="Y2FYfS4u4MYW43cecbyf-21" vertex="1" connectable="0">
                    <mxGeometry x="-0.48" relative="1" as="geometry">
                        <mxPoint as="offset"/>
                    </mxGeometry>
                </mxCell>
                <mxCell id="Y2FYfS4u4MYW43cecbyf-25" style="edgeStyle=orthogonalEdgeStyle;rounded=0;orthogonalLoop=1;jettySize=auto;html=1;entryX=0;entryY=0.5;entryDx=0;entryDy=0;" parent="1" source="Y2FYfS4u4MYW43cecbyf-12" target="Y2FYfS4u4MYW43cecbyf-20" edge="1">
                    <mxGeometry relative="1" as="geometry">
                        <Array as="points">
                            <mxPoint x="200" y="410"/>
                        </Array>
                    </mxGeometry>
                </mxCell>
                <mxCell id="Y2FYfS4u4MYW43cecbyf-27" value="Port: 3306" style="edgeLabel;html=1;align=center;verticalAlign=middle;resizable=0;points=[];" parent="Y2FYfS4u4MYW43cecbyf-25" vertex="1" connectable="0">
                    <mxGeometry x="-0.12" y="-1" relative="1" as="geometry">
                        <mxPoint as="offset"/>
                    </mxGeometry>
                </mxCell>
                <mxCell id="Y2FYfS4u4MYW43cecbyf-46" style="edgeStyle=orthogonalEdgeStyle;rounded=0;orthogonalLoop=1;jettySize=auto;html=1;entryX=0.5;entryY=0;entryDx=0;entryDy=0;" parent="1" target="Y2FYfS4u4MYW43cecbyf-43" edge="1">
                    <mxGeometry relative="1" as="geometry">
                        <mxPoint x="120" y="100.02882352941194" as="sourcePoint"/>
                        <Array as="points">
                            <mxPoint x="80" y="99.97"/>
                        </Array>
                    </mxGeometry>
                </mxCell>
                <mxCell id="Y2FYfS4u4MYW43cecbyf-12" value="MySQL Database" style="rounded=0;whiteSpace=wrap;html=1;" parent="1" vertex="1">
                    <mxGeometry x="120" y="80" width="160" height="40" as="geometry"/>
                </mxCell>
                <mxCell id="Y2FYfS4u4MYW43cecbyf-16" style="edgeStyle=orthogonalEdgeStyle;rounded=0;orthogonalLoop=1;jettySize=auto;html=1;entryX=1;entryY=0.5;entryDx=0;entryDy=0;" parent="1" source="Y2FYfS4u4MYW43cecbyf-13" target="Y2FYfS4u4MYW43cecbyf-14" edge="1">
                    <mxGeometry relative="1" as="geometry"/>
                </mxCell>
                <mxCell id="Y2FYfS4u4MYW43cecbyf-18" value="Port:&amp;nbsp;&lt;span style=&quot;color: rgb(36 , 41 , 46) ; font-family: , , &amp;#34;sf mono&amp;#34; , &amp;#34;consolas&amp;#34; , &amp;#34;liberation mono&amp;#34; , &amp;#34;menlo&amp;#34; , monospace ; font-size: 12px&quot;&gt;27017&lt;/span&gt;" style="edgeLabel;html=1;align=center;verticalAlign=middle;resizable=0;points=[];" parent="Y2FYfS4u4MYW43cecbyf-16" vertex="1" connectable="0">
                    <mxGeometry x="-0.0875" y="4" relative="1" as="geometry">
                        <mxPoint as="offset"/>
                    </mxGeometry>
                </mxCell>
                <mxCell id="Y2FYfS4u4MYW43cecbyf-22" style="edgeStyle=orthogonalEdgeStyle;rounded=0;orthogonalLoop=1;jettySize=auto;html=1;entryX=1;entryY=0.5;entryDx=0;entryDy=0;" parent="1" source="Y2FYfS4u4MYW43cecbyf-13" target="Y2FYfS4u4MYW43cecbyf-19" edge="1">
                    <mxGeometry relative="1" as="geometry">
                        <Array as="points">
                            <mxPoint x="600" y="300"/>
                        </Array>
                    </mxGeometry>
                </mxCell>
                <mxCell id="Y2FYfS4u4MYW43cecbyf-24" value="Port: 27017" style="edgeLabel;html=1;align=center;verticalAlign=middle;resizable=0;points=[];" parent="Y2FYfS4u4MYW43cecbyf-22" vertex="1" connectable="0">
                    <mxGeometry x="-0.4933" relative="1" as="geometry">
                        <mxPoint as="offset"/>
                    </mxGeometry>
                </mxCell>
                <mxCell id="Y2FYfS4u4MYW43cecbyf-26" style="edgeStyle=orthogonalEdgeStyle;rounded=0;orthogonalLoop=1;jettySize=auto;html=1;entryX=1;entryY=0.5;entryDx=0;entryDy=0;" parent="1" source="Y2FYfS4u4MYW43cecbyf-13" target="Y2FYfS4u4MYW43cecbyf-20" edge="1">
                    <mxGeometry relative="1" as="geometry">
                        <Array as="points">
                            <mxPoint x="640" y="410"/>
                        </Array>
                    </mxGeometry>
                </mxCell>
                <mxCell id="Y2FYfS4u4MYW43cecbyf-28" value="Port: 27017" style="edgeLabel;html=1;align=center;verticalAlign=middle;resizable=0;points=[];" parent="Y2FYfS4u4MYW43cecbyf-26" vertex="1" connectable="0">
                    <mxGeometry x="-0.0933" y="1" relative="1" as="geometry">
                        <mxPoint as="offset"/>
                    </mxGeometry>
                </mxCell>
                <mxCell id="Y2FYfS4u4MYW43cecbyf-47" style="edgeStyle=orthogonalEdgeStyle;rounded=0;orthogonalLoop=1;jettySize=auto;html=1;" parent="1" source="Y2FYfS4u4MYW43cecbyf-13" target="Y2FYfS4u4MYW43cecbyf-44" edge="1">
                    <mxGeometry relative="1" as="geometry">
                        <Array as="points">
                            <mxPoint x="760" y="100"/>
                        </Array>
                    </mxGeometry>
                </mxCell>
                <mxCell id="Y2FYfS4u4MYW43cecbyf-13" value="MongoDB" style="rounded=0;whiteSpace=wrap;html=1;" parent="1" vertex="1">
                    <mxGeometry x="560" y="80" width="160" height="40" as="geometry"/>
                </mxCell>
                <mxCell id="Y2FYfS4u4MYW43cecbyf-54" style="edgeStyle=orthogonalEdgeStyle;rounded=0;orthogonalLoop=1;jettySize=auto;html=1;" parent="1" source="Y2FYfS4u4MYW43cecbyf-14" edge="1">
                    <mxGeometry relative="1" as="geometry">
                        <mxPoint x="280" y="720" as="targetPoint"/>
                        <Array as="points">
                            <mxPoint x="420" y="240"/>
                            <mxPoint x="280" y="240"/>
                        </Array>
                    </mxGeometry>
                </mxCell>
                <mxCell id="Y2FYfS4u4MYW43cecbyf-64" value="Port: 6033" style="edgeLabel;html=1;align=center;verticalAlign=middle;resizable=0;points=[];" parent="Y2FYfS4u4MYW43cecbyf-54" vertex="1" connectable="0">
                    <mxGeometry x="0.8641" y="-1" relative="1" as="geometry">
                        <mxPoint as="offset"/>
                    </mxGeometry>
                </mxCell>
                <mxCell id="Y2FYfS4u4MYW43cecbyf-14" value="deviceapiserver" style="rounded=0;whiteSpace=wrap;html=1;" parent="1" vertex="1">
                    <mxGeometry x="360" y="160" width="120" height="40" as="geometry"/>
                </mxCell>
                <mxCell id="Y2FYfS4u4MYW43cecbyf-55" style="edgeStyle=orthogonalEdgeStyle;rounded=0;orthogonalLoop=1;jettySize=auto;html=1;" parent="1" source="Y2FYfS4u4MYW43cecbyf-19" edge="1">
                    <mxGeometry relative="1" as="geometry">
                        <mxPoint x="560" y="720" as="targetPoint"/>
                        <Array as="points">
                            <mxPoint x="420" y="360"/>
                            <mxPoint x="560" y="360"/>
                        </Array>
                    </mxGeometry>
                </mxCell>
                <mxCell id="Y2FYfS4u4MYW43cecbyf-65" value="Port: 6034" style="edgeLabel;html=1;align=center;verticalAlign=middle;resizable=0;points=[];" parent="Y2FYfS4u4MYW43cecbyf-55" vertex="1" connectable="0">
                    <mxGeometry x="0.8278" y="1" relative="1" as="geometry">
                        <mxPoint as="offset"/>
                    </mxGeometry>
                </mxCell>
                <mxCell id="Y2FYfS4u4MYW43cecbyf-19" value="publicapiserver" style="rounded=0;whiteSpace=wrap;html=1;" parent="1" vertex="1">
                    <mxGeometry x="360" y="280" width="120" height="40" as="geometry"/>
                </mxCell>
                <mxCell id="Y2FYfS4u4MYW43cecbyf-38" style="edgeStyle=orthogonalEdgeStyle;rounded=0;orthogonalLoop=1;jettySize=auto;html=1;entryX=0.5;entryY=0;entryDx=0;entryDy=0;" parent="1" source="Y2FYfS4u4MYW43cecbyf-20" target="Y2FYfS4u4MYW43cecbyf-37" edge="1">
                    <mxGeometry relative="1" as="geometry"/>
                </mxCell>
                <mxCell id="2" value="Port: 80" style="edgeLabel;html=1;align=center;verticalAlign=middle;resizable=0;points=[];" vertex="1" connectable="0" parent="Y2FYfS4u4MYW43cecbyf-38">
                    <mxGeometry x="0.0766" relative="1" as="geometry">
                        <mxPoint as="offset"/>
                    </mxGeometry>
                </mxCell>
                <mxCell id="Y2FYfS4u4MYW43cecbyf-20" value="webserverapiserver" style="rounded=0;whiteSpace=wrap;html=1;" parent="1" vertex="1">
                    <mxGeometry x="360" y="390" width="120" height="40" as="geometry"/>
                </mxCell>
                <mxCell id="Y2FYfS4u4MYW43cecbyf-51" style="edgeStyle=orthogonalEdgeStyle;rounded=0;orthogonalLoop=1;jettySize=auto;html=1;" parent="1" source="Y2FYfS4u4MYW43cecbyf-37" edge="1">
                    <mxGeometry relative="1" as="geometry">
                        <mxPoint x="420" y="719.9999999999998" as="targetPoint"/>
                    </mxGeometry>
                </mxCell>
                <mxCell id="Y2FYfS4u4MYW43cecbyf-63" value="Port: 80/443" style="edgeLabel;html=1;align=center;verticalAlign=middle;resizable=0;points=[];" parent="Y2FYfS4u4MYW43cecbyf-51" vertex="1" connectable="0">
                    <mxGeometry x="0.5267" relative="1" as="geometry">
                        <mxPoint as="offset"/>
                    </mxGeometry>
                </mxCell>
                <mxCell id="Y2FYfS4u4MYW43cecbyf-37" value="webserver" style="rounded=0;whiteSpace=wrap;html=1;" parent="1" vertex="1">
                    <mxGeometry x="360" y="480" width="120" height="40" as="geometry"/>
                </mxCell>
                <mxCell id="Y2FYfS4u4MYW43cecbyf-49" style="edgeStyle=orthogonalEdgeStyle;rounded=0;orthogonalLoop=1;jettySize=auto;html=1;" parent="1" source="Y2FYfS4u4MYW43cecbyf-43" edge="1">
                    <mxGeometry relative="1" as="geometry">
                        <mxPoint x="80" y="719.9699999999998" as="targetPoint"/>
                    </mxGeometry>
                </mxCell>
                <mxCell id="Y2FYfS4u4MYW43cecbyf-61" value="Port:&amp;nbsp;6032" style="edgeLabel;html=1;align=center;verticalAlign=middle;resizable=0;points=[];" parent="Y2FYfS4u4MYW43cecbyf-49" vertex="1" connectable="0">
                    <mxGeometry x="0.1838" relative="1" as="geometry">
                        <mxPoint as="offset"/>
                    </mxGeometry>
                </mxCell>
                <mxCell id="Y2FYfS4u4MYW43cecbyf-43" value="PHPMyAdmin" style="rounded=0;whiteSpace=wrap;html=1;" parent="1" vertex="1">
                    <mxGeometry x="40" y="559.97" width="80" height="40" as="geometry"/>
                </mxCell>
                <mxCell id="Y2FYfS4u4MYW43cecbyf-53" style="edgeStyle=orthogonalEdgeStyle;rounded=0;orthogonalLoop=1;jettySize=auto;html=1;" parent="1" source="Y2FYfS4u4MYW43cecbyf-44" edge="1">
                    <mxGeometry relative="1" as="geometry">
                        <mxPoint x="760" y="719.9999999999998" as="targetPoint"/>
                    </mxGeometry>
                </mxCell>
                <mxCell id="Y2FYfS4u4MYW43cecbyf-62" value="Port:&amp;nbsp;6031" style="edgeLabel;html=1;align=center;verticalAlign=middle;resizable=0;points=[];" parent="Y2FYfS4u4MYW43cecbyf-53" vertex="1" connectable="0">
                    <mxGeometry x="0.2618" relative="1" as="geometry">
                        <mxPoint as="offset"/>
                    </mxGeometry>
                </mxCell>
                <mxCell id="Y2FYfS4u4MYW43cecbyf-44" value="Mongo Express" style="rounded=0;whiteSpace=wrap;html=1;" parent="1" vertex="1">
                    <mxGeometry x="720" y="560" width="80" height="40" as="geometry"/>
                </mxCell>
                <mxCell id="Y2FYfS4u4MYW43cecbyf-56" value="" style="endArrow=none;dashed=1;html=1;" parent="1" edge="1">
                    <mxGeometry width="50" height="50" relative="1" as="geometry">
                        <mxPoint x="20" y="640" as="sourcePoint"/>
                        <mxPoint x="20" y="60" as="targetPoint"/>
                    </mxGeometry>
                </mxCell>
                <mxCell id="Y2FYfS4u4MYW43cecbyf-57" value="" style="endArrow=none;dashed=1;html=1;" parent="1" edge="1">
                    <mxGeometry width="50" height="50" relative="1" as="geometry">
                        <mxPoint x="820" y="60" as="sourcePoint"/>
                        <mxPoint x="20" y="60" as="targetPoint"/>
                    </mxGeometry>
                </mxCell>
                <mxCell id="Y2FYfS4u4MYW43cecbyf-58" value="" style="endArrow=none;dashed=1;html=1;" parent="1" edge="1">
                    <mxGeometry width="50" height="50" relative="1" as="geometry">
                        <mxPoint x="820" y="640" as="sourcePoint"/>
                        <mxPoint x="20.000000000000227" y="640" as="targetPoint"/>
                    </mxGeometry>
                </mxCell>
                <mxCell id="Y2FYfS4u4MYW43cecbyf-59" value="" style="endArrow=none;dashed=1;html=1;" parent="1" edge="1">
                    <mxGeometry width="50" height="50" relative="1" as="geometry">
                        <mxPoint x="820" y="60" as="sourcePoint"/>
                        <mxPoint x="820" y="640" as="targetPoint"/>
                    </mxGeometry>
                </mxCell>
                <mxCell id="Y2FYfS4u4MYW43cecbyf-60" value="Server" style="text;html=1;align=center;verticalAlign=middle;resizable=0;points=[];autosize=1;strokeColor=none;" parent="1" vertex="1">
                    <mxGeometry x="20" y="60" width="50" height="20" as="geometry"/>
                </mxCell>
            </root>
        </mxGraphModel>
    </diagram>
</mxfile>